<?xml version="1.0" encoding="UTF-8" standalone="no"?>
<svg
   xmlns:dc="http://purl.org/dc/elements/1.1/"
   xmlns:cc="http://creativecommons.org/ns#"
   xmlns:rdf="http://www.w3.org/1999/02/22-rdf-syntax-ns#"
   xmlns:svg="http://www.w3.org/2000/svg"
   xmlns="http://www.w3.org/2000/svg"
   viewBox="0 0 660.29333 139.25333"
   height="139.25333"
   width="660.29333"
   xml:space="preserve"
   id="svg2"
   version="1.1"><metadata
     id="metadata8"><rdf:RDF><cc:Work
         rdf:about=""><dc:format>image/svg+xml</dc:format><dc:type
           rdf:resource="http://purl.org/dc/dcmitype/StillImage" /></cc:Work></rdf:RDF></metadata><defs
     id="defs6" /><g
     transform="matrix(1.3333333,0,0,-1.3333333,0,139.25333)"
     id="g10"><g
       transform="scale(0.1)"
       id="g12"><path
         id="path14"
         style="fill:#ffffff;fill-opacity:1;fill-rule:nonzero;stroke:none"
         d="m 4883.81,978.57 c 3.18,0 5.84,0.282 7.96,0.856 2.13,0.57 3.83,1.394 5.09,2.472 1.26,1.082 2.14,2.434 2.65,4.055 0.52,1.617 0.77,3.477 0.77,5.574 0,2.043 -0.22,3.817 -0.67,5.313 -0.45,1.5 -1.25,2.746 -2.4,3.74 -1.13,0.99 -2.66,1.74 -4.59,2.25 -1.91,0.51 -4.34,0.76 -7.28,0.76 h -10.71 v -25.02 z m 1.53,37.89 c 10.8,0 18.75,-1.92 23.85,-5.76 5.09,-3.84 7.65,-9.51 7.65,-17.009 0,-5.464 -1.47,-10.183 -4.41,-14.175 -2.94,-3.993 -7.44,-6.825 -13.5,-8.504 1.19,-0.723 2.2,-1.606 3.01,-2.657 0.81,-1.05 1.58,-2.265 2.3,-3.644 l 18.36,-28.707 h -16.11 c -2.34,0 -4.02,0.867 -5.04,2.605 l -15.39,25.2 c -0.6,0.839 -1.26,1.484 -1.98,1.937 -0.72,0.449 -1.87,0.676 -3.42,0.676 h -6.03 v -30.418 h -16.74 v 80.456 z m 0.72,-96.929 c 5.16,0 10.14,0.66 14.93,1.977 4.81,1.32 9.26,3.199 13.37,5.625 4.11,2.433 7.86,5.359 11.25,8.777 3.39,3.422 6.29,7.231 8.68,11.43 2.41,4.199 4.27,8.715 5.59,13.543 1.32,4.832 1.98,9.89 1.98,15.168 0,5.277 -0.66,10.367 -1.98,15.254 -1.32,4.89 -3.18,9.435 -5.59,13.635 -2.39,4.2 -5.29,8.02 -8.68,11.48 -3.39,3.44 -7.14,6.4 -11.25,8.86 -4.11,2.46 -8.56,4.36 -13.37,5.72 -4.79,1.34 -9.77,2.02 -14.93,2.02 -7.74,0 -14.99,-1.48 -21.74,-4.45 -6.74,-2.97 -12.61,-7.03 -17.59,-12.15 -4.98,-5.13 -8.9,-11.17 -11.74,-18.096 -2.85,-6.926 -4.28,-14.355 -4.28,-22.273 0,-7.922 1.43,-15.317 4.28,-22.184 2.84,-6.875 6.76,-12.84 11.74,-17.91 4.98,-5.074 10.85,-9.074 17.59,-12.016 6.75,-2.937 14,-4.41 21.74,-4.41 z m 0,122.759 c 6.06,0 11.91,-0.79 17.55,-2.38 5.64,-1.59 10.92,-3.83 15.84,-6.71 4.91,-2.88 9.39,-6.33 13.41,-10.35 4.02,-4.02 7.47,-8.49 10.35,-13.41 2.88,-4.92 5.1,-10.202 6.66,-15.842 1.55,-5.637 2.33,-11.489 2.33,-17.547 0,-6.059 -0.79,-11.91 -2.38,-17.551 -1.59,-5.637 -3.81,-10.906 -6.66,-15.793 -2.85,-4.894 -6.28,-9.348 -10.3,-13.363 -4.02,-4.028 -8.5,-7.473 -13.41,-10.356 -4.92,-2.879 -10.2,-5.097 -15.84,-6.66 -5.64,-1.555 -11.49,-2.336 -17.55,-2.336 -6.06,0 -11.91,0.781 -17.55,2.336 -5.64,1.563 -10.91,3.781 -15.8,6.66 -4.89,2.883 -9.34,6.328 -13.36,10.356 -4.02,4.015 -7.47,8.469 -10.35,13.363 -2.88,4.887 -5.11,10.156 -6.66,15.793 -1.56,5.641 -2.34,11.492 -2.34,17.551 0,6.058 0.78,11.91 2.34,17.547 1.55,5.64 3.78,10.922 6.66,15.842 2.88,4.92 6.33,9.39 10.35,13.41 4.02,4.02 8.47,7.47 13.36,10.35 4.89,2.88 10.16,5.12 15.8,6.71 5.64,1.59 11.49,2.38 17.55,2.38" /><path
         id="path16"
         style="fill:#ffffff;fill-opacity:1;fill-rule:nonzero;stroke:none"
         d="M 3829.63,1044.45 4264.81,0 4700,1044.45 H 4525.93 L 4264.81,401.359 4003.7,1044.45 h -174.07" /><path
         id="path18"
         style="fill:#e23a33;fill-opacity:1;fill-rule:nonzero;stroke:none"
         d="M 3307.4,0 H 3133.33 V 1044.45 H 3307.4 V 0" /><path
         id="path20"
         style="fill:#ffffff;fill-opacity:1;fill-rule:nonzero;stroke:none"
         d="M 1740.74,0 2175.92,1044.45 2611.1,0 H 2437.03 L 2175.92,643.094 1914.81,0 h -174.07" /><path
         id="path22"
         style="fill:#ffffff;fill-opacity:1;fill-rule:nonzero;stroke:none"
         d="M 1218.52,1044.45 957.41,401.359 696.297,1044.45 435.188,401.359 174.074,1044.45 H 0.00390625 L 435.188,0 696.297,626.68 957.41,0 1392.6,1044.45 h -174.08" /></g></g></svg>